# xmcd
#
# Track frame offsets:
#	150
#	9390
#	25865
#	31588
#	44678
#	60408
#	73909
#	90754
#	99591
#	115911
#	123036
#
# Disc length: 1908 seconds
#
# Revision: 1
# Processed by: cddbd v1.5.2PL0 Copyright (c) Steve Scherf et al.
# Submitted via: audiograbber 1.83.01
#
DISCID=7d07720b
DTITLE=Palavra Cantada - Palavra Cantada Na Escola
DYEAR=2006
DGENRE=Infantil
TTITLE0=Palavra Cantada para Cantar
TTITLE1=África
TTITLE2=Ora Bolas
TTITLE3=Vovô
TTITLE4=Pé de Nabo
TTITLE5=Pout Pourri Osquidô Lê Lê
TTITLE6=Ciranda
TTITLE7=Gramática
TTITLE8=Pindorama
TTITLE9=Camaleão
TTITLE10=Instrumental África
EXTD=Revista Nova Escola 
EXTT0=Sandra Peres_Paulo Tatit - Ze Tatit
EXTT1=Sandra Peres_Paulo Tatit - Arnaldo Antunes
EXTT2=Paulo Tatit e Edith Derdyk
EXTT3=Paulo Tatit e Edith Derdyk
EXTT4=Sandra Peres_Luiz Tatit
EXTT5=Dominio Público
EXTT6=Sandra Peres - Ze Tatit
EXTT7=Sandra Peres_Luiz Tatit
EXTT8=Sandra Peres_Luiz Tatit
EXTT9=Paulo Tatit - Ze Tatit
EXTT10=Sandra Peres_Paulo Tatit - Arnaldo Antunes
PLAYORDER=
